<svg version="1.1" id="Layer_1" xmlns="http://www.w3.org/2000/svg" xmlns:xlink="http://www.w3.org/1999/xlink" x="0px" y="0px"
	 width="100%" viewBox="0 0 1024 1024" enable-background="new 0 0 1024 1024" xml:space="preserve">
<path fill="#252021" opacity="1.000000" stroke="none" 
	d="
M466.000000,1025.000000 
	C312.166656,1025.000000 158.833313,1024.984131 5.500067,1025.094116 
	C1.750629,1025.096802 0.905801,1024.249146 0.906913,1020.500000 
	C1.007246,682.166687 1.007246,343.833344 0.906913,5.500028 
	C0.905801,1.750903 1.750902,0.905800 5.500028,0.906912 
	C343.833344,1.007255 682.166687,1.007255 1020.500000,0.906912 
	C1024.249146,0.905800 1025.094360,1.750902 1025.093262,5.500027 
	C1024.992920,343.833344 1024.992798,682.166687 1025.093140,1020.500000 
	C1025.094238,1024.249146 1024.249268,1025.095947 1020.499939,1025.093750 
	C835.833313,1024.986816 651.166687,1025.000000 466.000000,1025.000000 
z"/>
<path fill="#FAF9F9" opacity="1.000000" stroke="none" 
	d="
M698.283142,430.796631 
	C694.795837,433.886047 691.868591,437.327271 687.065979,438.216187 
	C674.416565,440.557404 665.637573,433.190613 665.060181,419.602173 
	C664.985718,417.848816 665.050049,416.089569 665.050049,413.498566 
	C660.732910,418.959778 656.882629,423.872314 652.983826,428.745941 
	C650.798523,431.477539 648.489319,434.110107 646.311707,436.847595 
	C641.237610,443.226105 635.284180,446.281708 626.735840,444.050110 
	C617.156006,441.549194 607.752747,442.057343 598.753540,447.418274 
	C594.771729,449.790283 589.221313,448.032104 584.948669,450.922668 
	C583.894409,451.635925 583.017944,449.988983 582.453369,448.994354 
	C581.555176,447.411957 580.739990,445.782501 579.704468,443.822296 
	C578.449707,445.661560 577.462158,447.296936 576.291809,448.788971 
	C573.007629,452.975952 569.218933,456.873077 563.409363,455.972168 
	C548.197693,453.613251 534.533325,458.411530 521.039795,464.372040 
	C520.282898,464.706360 519.197510,465.484772 518.782959,465.226227 
	C513.657959,462.029724 510.545959,466.488953 506.743530,468.252197 
	C498.538208,472.057129 489.737244,467.724335 487.322388,458.639221 
	C486.867401,456.927521 486.599304,455.166107 486.005127,452.251007 
	C482.959076,457.694885 480.170990,461.984406 476.602325,465.671539 
	C472.754333,469.647247 468.639862,473.290222 463.320770,475.189117 
	C454.340973,478.394867 445.131836,474.092621 441.244598,464.909393 
	C440.625122,463.445953 440.180695,461.908447 439.508179,459.984131 
	C436.241333,464.074097 433.318451,467.871948 430.245636,471.544281 
	C426.702087,475.779297 422.730438,479.568207 417.963776,482.444489 
	C406.079926,489.615448 393.700043,483.215698 392.842712,469.412109 
	C392.228638,459.525238 394.996857,450.289490 398.566711,441.249847 
	C401.875488,432.871216 406.206024,424.980133 410.336090,416.993256 
	C413.638977,410.605957 413.341949,410.147369 406.408661,410.002625 
	C405.742371,409.988708 405.058136,410.081909 404.412170,409.962921 
	C400.148987,409.177673 398.318207,410.890900 396.587402,415.066284 
	C382.199860,449.774780 358.624237,475.647552 322.437958,487.981140 
	C284.749390,500.826721 250.330856,477.847198 247.048767,438.098114 
	C243.820541,399.001373 258.972595,366.712921 285.805695,339.566803 
	C307.351166,317.769958 333.521942,305.279846 364.740753,305.211517 
	C375.780792,305.187347 386.230164,307.733307 395.366455,314.333038 
	C409.924652,324.849365 415.422821,341.488525 410.634644,361.075043 
	C409.372559,366.237823 407.518646,371.255890 405.830994,376.713043 
	C405.161926,377.505463 404.378601,377.854919 403.883698,377.428375 
	C398.897461,373.131287 392.252441,371.094116 387.891357,365.424072 
	C387.024780,361.862854 387.963409,358.793884 388.460083,355.908356 
	C383.364502,363.275635 379.098816,371.391235 374.681488,379.411072 
	C371.923492,384.418365 367.816254,387.447235 362.363190,388.800415 
	C356.696716,390.206543 353.146454,387.191132 353.825775,381.353668 
	C354.310028,377.192932 355.769928,373.260040 357.437683,369.433044 
	C363.043427,356.569550 371.681763,346.180115 383.418732,338.525085 
	C386.839478,336.294067 387.043701,334.130798 384.777710,331.226929 
	C379.653992,324.660889 372.424286,322.416321 364.575562,321.826233 
	C350.081604,320.736450 337.252594,325.821198 325.684387,333.830963 
	C307.878082,346.160004 295.938477,363.168823 288.535461,383.412537 
	C284.040314,395.704620 281.491119,408.461395 280.947601,421.496368 
	C280.464874,433.072937 282.162292,444.445038 287.025879,455.125610 
	C293.596710,469.555359 306.539276,475.794708 321.928345,471.839813 
	C332.289886,469.177002 341.092163,463.535095 349.434265,457.008514 
	C362.768097,446.576660 373.224548,433.801147 381.126678,418.880249 
	C382.535400,416.220337 383.410797,413.343719 384.505402,410.554291 
	C385.766418,407.340607 385.591034,404.495239 383.559296,401.616943 
	C382.123962,399.583527 381.092865,397.270874 380.545166,394.398254 
	C380.234894,391.068634 381.265900,388.425110 382.555389,385.450562 
	C383.215546,383.138397 383.954529,381.258820 384.876892,379.040924 
	C391.814575,371.433319 395.387665,372.118958 401.255554,382.097839 
	C401.546448,382.626678 401.667725,382.832794 401.931274,383.362762 
	C402.367371,384.541656 402.475037,385.453552 402.986572,386.584412 
	C403.484100,388.343109 403.876617,389.793732 403.856232,391.627045 
	C403.300171,395.047394 405.514313,394.494568 407.275665,394.507507 
	C413.782074,394.555298 420.278076,394.674194 426.544403,396.767517 
	C436.483856,400.087830 439.038025,405.574158 434.660614,415.026215 
	C429.207001,426.801941 421.664825,437.534851 417.198792,449.816345 
	C415.204742,455.299896 413.230560,460.782837 412.469299,466.609161 
	C412.296539,467.931427 412.037415,469.363708 413.477081,470.166382 
	C414.849579,470.931610 416.122559,470.273315 417.124237,469.368439 
	C419.343109,467.364044 421.587616,465.362000 423.591095,463.150085 
	C429.423401,456.711029 433.962036,449.286591 439.176422,442.374603 
	C440.317200,440.862366 440.618835,439.089142 441.103516,437.310822 
	C445.109558,422.611420 450.545135,408.511719 459.571045,396.077606 
	C461.905273,392.861969 464.598755,389.824463 467.521118,387.132812 
	C479.742920,375.875977 491.315063,376.306824 502.567963,388.575592 
	C504.358887,380.261688 509.751099,375.646454 517.411438,373.360291 
	C518.364807,373.075745 519.335022,372.735229 520.314331,372.668579 
	C527.353027,372.189545 530.229126,375.505737 527.950867,382.037720 
	C521.646790,400.111969 515.111328,418.105499 508.663574,436.129608 
	C506.853333,441.189850 505.704102,446.333344 506.065979,451.778778 
	C506.277802,454.966370 507.505066,455.747528 510.079987,453.870270 
	C515.296997,450.066864 520.463074,446.435944 524.334167,440.876221 
	C538.532776,420.483704 554.870850,401.752716 570.671448,382.609283 
	C571.666626,381.403564 573.703247,380.334625 572.966064,378.588684 
	C572.343750,377.114929 570.280945,377.886078 568.867432,377.649323 
	C565.419678,377.071747 561.963989,376.520203 558.494202,376.100616 
	C552.049011,375.321167 548.304810,378.009216 546.997314,384.279083 
	C546.397339,387.155701 546.462402,391.265778 542.317932,390.507935 
	C538.108704,389.738281 537.789001,385.758423 538.362000,382.028839 
	C539.902283,372.003326 547.158752,364.807770 557.211304,363.477783 
	C563.064148,362.703430 568.863220,363.305664 574.544189,364.814758 
	C576.992981,365.465271 578.775696,365.225494 580.764771,363.274078 
	C585.308411,358.816528 591.164307,358.231964 597.105957,359.243134 
	C601.954590,360.068298 603.629944,363.686707 601.665771,368.758331 
	C598.573547,376.742828 593.926025,383.831879 588.778259,390.640381 
	C576.810913,406.468628 563.885132,421.501465 550.971375,436.547241 
	C549.360474,438.424011 547.812378,440.354614 546.190063,442.314758 
	C555.306396,445.936829 561.710754,445.045288 568.785278,439.401398 
	C573.006165,436.034088 576.954041,431.227875 582.951660,436.792236 
	C584.289368,438.033356 584.891541,436.148438 585.442688,435.326447 
	C601.539246,411.320038 621.695007,390.533691 639.108459,367.575806 
	C640.024292,366.368408 642.299133,365.419006 641.319641,363.638641 
	C640.446228,362.051208 638.377686,362.507996 636.732727,362.908112 
	C634.224426,363.518219 631.757629,362.871094 629.278137,362.698395 
	C621.207947,362.136292 619.291992,363.562744 617.149170,371.190582 
	C616.563232,373.276276 617.468384,377.127594 613.646606,376.573822 
	C610.021973,376.048584 608.810486,372.792145 608.701599,369.384674 
	C608.449280,361.488617 615.218872,352.864349 622.995300,350.985352 
	C629.602661,349.388794 636.252014,349.847931 642.873596,350.687378 
	C645.624268,351.036102 647.864319,350.865753 650.274780,349.097961 
	C653.489197,346.740631 657.293701,345.303040 661.281921,344.570190 
	C667.850525,343.363220 671.714478,347.381744 669.974121,353.781921 
	C668.561157,358.977997 665.886963,363.631042 662.913940,368.057983 
	C649.223389,388.444153 633.019775,406.819702 616.933716,425.287109 
	C615.984497,426.376801 614.498352,427.072113 614.137634,429.337311 
	C619.418274,430.003418 624.646545,430.682159 629.880493,431.312714 
	C631.704712,431.532471 633.003235,430.416443 634.330872,429.388702 
	C654.223450,413.990326 670.088135,395.562561 678.335327,371.319153 
	C681.550659,361.867676 685.444519,352.629150 687.050293,342.694489 
	C687.767700,338.256195 690.867737,338.634583 693.889832,339.430481 
	C701.247070,341.368134 706.362244,349.373749 705.435120,357.205750 
	C704.880432,361.891357 703.037048,366.202332 701.472229,370.586853 
	C696.660095,384.070282 691.338074,397.376007 687.418884,411.169556 
	C686.505310,414.384918 685.666321,417.598846 685.808105,420.985443 
	C685.864990,422.344513 685.881836,423.833191 687.246643,424.482819 
	C688.697449,425.173462 689.758423,423.991882 690.724365,423.117645 
	C696.452637,417.933380 701.240967,411.974762 705.040283,405.252869 
	C714.818909,387.951996 721.585083,369.264465 729.826050,351.255280 
	C731.834412,346.866302 733.739868,342.413116 736.045959,338.182007 
	C738.653564,333.397583 742.934082,330.960571 748.422424,331.280487 
	C754.006714,331.605896 756.985779,335.494720 755.465820,340.834747 
	C753.782532,346.748779 751.655579,352.547729 749.500610,358.314117 
	C744.313354,372.194580 738.996765,386.026703 733.585693,400.278870 
	C734.130920,401.814484 733.248352,402.627289 732.722656,403.802185 
	C732.862061,404.471100 731.771912,404.251953 732.389038,404.506195 
	C732.981201,403.131134 733.704651,402.192230 734.842773,401.215820 
	C743.446106,390.996216 752.658508,381.930267 764.282104,375.613800 
	C768.542236,373.298737 772.971863,371.413086 777.630310,370.078125 
	C778.908325,369.711853 780.209961,369.357147 781.524902,369.203583 
	C785.762634,368.708679 789.583618,371.100586 789.839905,374.546295 
	C790.168213,378.960632 786.876404,380.398407 783.509155,380.832245 
	C777.067383,381.662109 771.331848,384.121246 765.832825,387.331268 
	C760.782410,390.279358 756.118774,393.781219 751.781616,397.691681 
	C748.567200,400.589844 745.484741,403.635101 742.363464,406.635681 
	C732.896301,415.736664 725.243042,425.782990 721.565796,438.865570 
	C718.400757,450.126007 712.461731,460.320984 704.942261,469.384583 
	C695.609314,480.634033 683.621338,486.194885 668.892883,485.017426 
	C650.305481,483.531464 640.730896,463.439117 651.134827,447.971436 
	C652.841370,445.434204 655.006531,443.389954 657.704163,441.965820 
	C661.740723,439.834930 666.906006,440.570465 669.717529,443.596008 
	C672.653503,446.755493 673.705261,453.926331 671.660217,457.218109 
	C670.647095,458.848938 669.248840,460.035126 667.192749,459.915894 
	C664.983337,459.787781 664.745483,458.002594 664.432312,456.345856 
	C664.249695,455.379791 664.100830,454.407349 663.920898,453.343811 
	C660.804504,455.433624 660.070801,458.152435 661.525391,461.632080 
	C663.227539,465.703827 667.421387,467.901855 671.738953,466.701416 
	C676.878662,465.272430 680.923035,462.052826 684.382935,458.121307 
	C690.966980,450.639771 695.241638,441.812592 699.060425,432.270111 
	C699.080322,431.467468 698.889221,431.123352 698.283142,430.796631 
z"/>
<path fill="#F9F9F9" opacity="1.000000" stroke="none" 
	d="
M609.155701,500.449036 
	C620.080627,496.583008 629.316467,490.462555 637.615295,482.838623 
	C639.250549,481.336365 640.666992,478.812744 643.340942,481.355469 
	C645.879028,483.769043 648.988525,486.141022 646.907471,490.215576 
	C645.795532,492.392700 644.080872,494.336884 642.357971,496.114624 
	C632.492493,506.294495 620.359802,512.733093 606.973145,516.878967 
	C603.606262,517.921692 601.634399,519.570984 600.525635,522.960938 
	C594.523743,541.312012 587.792236,559.450256 584.826050,578.652222 
	C584.507751,580.712769 583.470825,583.204285 585.918274,584.536377 
	C588.111877,585.730225 590.144531,584.154907 591.886536,582.982422 
	C599.149109,578.094421 605.019775,571.729126 610.493835,564.974976 
	C612.172241,562.904114 613.710205,560.714722 615.455078,558.703247 
	C621.292175,551.974243 625.252014,544.868469 626.303650,535.434204 
	C627.721252,522.716797 634.718933,512.071289 643.911743,503.123718 
	C647.988525,499.155640 652.840515,496.815674 658.713196,496.920624 
	C664.671936,497.027100 669.111267,499.418365 670.889648,505.310577 
	C672.013428,509.033997 673.487305,508.379150 675.568176,506.268066 
	C680.122620,501.647522 684.178589,496.544342 689.435730,492.608093 
	C701.130798,483.851654 710.067383,486.761749 714.124634,500.764191 
	C714.399475,501.712585 714.699768,502.653595 715.259583,504.486877 
	C717.076721,501.789581 718.485779,499.662933 719.930359,497.560669 
	C723.529297,492.323334 727.421265,487.331421 732.539001,483.465729 
	C745.826050,473.429291 756.496582,477.020355 760.629578,493.357697 
	C763.030396,490.303284 765.184021,487.438629 767.468811,484.682709 
	C772.070923,479.132019 777.099304,474.042755 783.743713,470.914093 
	C794.320251,465.933838 804.164062,470.995850 806.374207,482.443542 
	C807.664551,489.126953 805.768677,495.353027 803.660034,501.504272 
	C799.287415,514.260010 792.966492,526.282898 789.330017,539.318481 
	C788.615967,541.878235 788.052124,544.485901 787.553345,547.097107 
	C787.303772,548.403503 787.303284,549.925049 788.498718,550.756714 
	C789.845947,551.694031 791.114197,550.582703 792.115784,549.845581 
	C797.553162,545.844177 802.351135,541.031433 805.183655,534.955383 
	C809.896667,524.845520 816.487854,516.168335 823.659180,507.788727 
	C827.664978,503.108002 831.338013,498.144104 835.223938,493.358917 
	C840.392761,486.993774 844.995667,480.442017 846.772644,472.122253 
	C847.921387,466.743927 850.654785,461.864410 854.233704,457.565430 
	C856.433533,454.923065 859.100342,452.967712 862.491638,452.276276 
	C867.499390,451.255249 871.236023,454.643280 869.552124,459.321381 
	C866.531921,467.712067 868.903870,475.444763 871.346985,483.222961 
	C873.740784,490.844025 876.173340,498.481262 879.151428,505.885162 
	C888.689392,529.598022 872.909485,561.678589 842.717712,568.011719 
	C825.697632,571.581909 813.989990,566.418030 805.068604,551.145630 
	C802.038391,553.963074 799.571594,557.262695 796.236206,559.619324 
	C789.317627,564.507690 781.964783,568.689941 773.653748,563.796204 
	C765.473022,558.979248 765.555786,550.714783 766.845215,542.465698 
	C768.688782,530.672363 773.684204,519.874512 777.561646,508.723785 
	C780.330566,500.760895 783.816162,492.980499 784.099426,483.828583 
	C779.539978,486.422089 776.786377,490.169647 773.903381,493.749390 
	C760.655762,510.198486 752.398621,529.285095 744.948547,548.786743 
	C743.404053,552.829773 741.938721,556.906616 740.575256,561.013855 
	C739.572876,564.033325 739.086548,567.103455 739.777039,570.346375 
	C740.761536,574.969910 738.989746,576.593811 734.275940,575.682007 
	C727.423950,574.356628 722.219482,568.238953 722.042847,561.152283 
	C721.895020,555.218933 723.720825,549.652588 725.477478,544.090942 
	C730.036987,529.655579 735.787109,515.573120 738.350403,500.546631 
	C738.655701,498.756927 739.274719,496.989929 738.565308,495.105255 
	C735.736023,494.770508 734.426331,497.028290 732.896729,498.612793 
	C722.808838,509.063019 715.107971,520.934143 710.779541,534.966797 
	C706.949707,547.383301 702.715393,559.679871 695.117249,570.472900 
	C687.484192,581.315613 677.596619,588.475281 664.165588,590.446533 
	C647.246460,592.929749 633.057800,584.267517 627.741150,567.854248 
	C627.299316,566.489929 626.922180,565.104675 626.325134,563.087830 
	C622.897949,567.365784 619.901978,571.254333 616.747559,575.009705 
	C611.488770,581.270203 605.966736,587.286743 599.343750,592.164001 
	C597.739136,593.345642 596.080811,594.514709 594.298218,595.384277 
	C585.899902,599.480896 577.219360,601.146118 569.349609,594.815308 
	C561.594238,588.576538 560.967346,579.799744 562.755859,570.631042 
	C563.027832,569.236755 564.136414,567.888672 562.999817,566.072815 
	C556.834900,568.797668 551.099060,572.530212 544.299133,574.660767 
	C541.872498,572.556274 542.084961,570.236755 543.354004,567.464355 
	C542.580322,564.787170 543.652100,563.626343 545.653137,562.404968 
	C552.602417,558.163208 559.350708,553.592224 566.299988,549.350403 
	C568.741760,547.859924 570.175232,546.064270 570.909180,543.276306 
	C572.634277,536.723450 574.665466,530.251221 576.717346,523.253296 
	C569.105957,523.804871 561.844543,524.105652 554.564575,523.573914 
	C533.194153,522.012817 513.253662,515.408203 493.887878,506.693817 
	C492.069916,505.875702 490.237396,505.084351 488.455017,504.193726 
	C476.013580,497.977264 463.841797,497.947723 451.741150,505.960815 
	C450.772614,506.411072 450.193298,506.211792 449.796387,505.100098 
	C462.838409,491.722687 478.923553,488.828217 496.282715,490.505188 
	C507.504456,491.589264 517.868591,495.981323 528.355957,499.725067 
	C544.733398,505.571320 561.524475,508.210907 578.902100,507.245026 
	C581.268555,507.113525 582.878235,506.852051 583.673828,504.147888 
	C588.175781,488.846832 594.770264,474.132263 596.598877,458.091583 
	C596.885376,455.578827 598.309204,455.717896 600.066223,455.824097 
	C610.714783,456.467651 617.543457,465.205963 615.612122,475.936401 
	C614.188599,483.845581 611.094971,491.245850 608.299866,499.106964 
	C608.464844,499.813751 608.658569,500.135071 609.155701,500.449036 
z"/>
<path fill="#FAF9F9" opacity="1.000000" stroke="none" 
	d="
M291.910339,608.911255 
	C308.472565,591.426270 323.924500,573.561218 333.610779,551.527649 
	C335.082428,548.180115 336.306671,544.721863 337.590149,541.294128 
	C340.282166,534.104614 345.442963,532.590454 351.618805,537.209778 
	C355.922974,540.429077 357.589569,545.385254 355.459351,551.601685 
	C352.061798,561.516663 348.180756,571.267456 344.434052,581.060852 
	C340.321625,591.810242 336.884125,602.758240 334.538422,614.032349 
	C334.140503,615.945007 333.287567,618.288696 335.419067,619.517029 
	C337.438904,620.681030 339.285980,619.020874 340.766174,617.801758 
	C346.334137,613.216064 350.787872,607.587158 355.097015,601.856750 
	C364.264893,589.664856 371.357391,576.342773 376.973480,562.166626 
	C380.468903,553.343384 384.456421,544.712891 389.550751,536.662537 
	C392.794128,531.537170 397.187744,528.334412 403.609344,528.910889 
	C409.295227,529.421265 411.292847,532.758240 409.411926,538.133667 
	C402.540741,557.771118 393.262482,576.511047 387.620087,596.603149 
	C386.629791,600.129395 385.572723,603.681885 385.708527,607.385864 
	C385.857208,611.441101 388.267059,612.783325 391.731903,610.697327 
	C395.498322,608.429749 398.599121,605.272339 400.908112,601.613037 
	C413.835114,581.126343 430.174255,563.210449 444.326080,543.652283 
	C447.948822,538.645569 450.911133,533.472351 452.422974,527.249268 
	C454.173981,520.041565 457.619537,513.472046 465.390442,510.616913 
	C468.218506,509.577820 471.013916,509.395325 473.409607,511.442596 
	C475.652008,513.358887 475.129272,515.909363 474.462952,518.400085 
	C472.659546,525.141479 474.331512,531.637634 476.031921,538.084961 
	C479.201935,550.104492 483.490112,561.801147 486.223022,575.294128 
	C494.338440,564.919739 501.751190,555.586121 508.995148,546.123352 
	C512.634949,541.368713 515.570984,536.081421 519.731323,531.713379 
	C523.051270,528.227722 526.968872,526.095276 531.805725,527.984558 
	C536.560791,529.841919 536.789429,534.285217 536.748413,538.502625 
	C536.675232,546.030273 537.371399,553.494751 538.539795,560.897461 
	C539.030518,564.006653 538.485413,565.751221 535.452820,567.137756 
	C530.035095,569.614746 524.834717,572.567200 519.161682,575.519531 
	C518.173096,569.035156 517.252258,562.994507 516.335754,556.982849 
	C514.343689,556.913452 513.965881,558.462036 513.176575,559.368958 
	C501.357819,572.949646 490.109772,586.964539 479.880829,601.812378 
	C471.172150,614.453613 458.966431,622.224182 443.907196,625.112000 
	C428.135834,628.136414 416.541870,622.101196 409.460297,607.629883 
	C407.265472,607.769287 406.822266,609.893677 405.719513,611.155151 
	C400.857635,616.716431 395.688843,621.872314 388.841736,624.974243 
	C376.941345,630.365479 366.464569,624.607849 364.630341,611.709106 
	C364.451599,610.452271 364.248077,609.198975 363.935852,607.158142 
	C358.373352,614.218384 353.215607,620.684021 347.143158,626.330688 
	C344.446167,628.838562 341.661621,631.218018 338.409149,632.951538 
	C327.448914,638.792969 316.574341,633.790894 313.766968,621.712952 
	C312.444702,616.024231 313.396881,610.452332 314.398132,604.866394 
	C314.561493,603.955017 315.239746,602.835938 314.054626,602.254639 
	C312.838379,601.657898 312.330383,602.929321 311.784760,603.625305 
	C305.913147,611.113953 299.595184,618.205627 292.627441,624.680115 
	C272.910675,643.001099 250.198929,655.576599 223.498856,660.438721 
	C180.021591,668.356079 144.828918,640.464539 143.057785,596.290894 
	C141.579453,559.419678 156.769608,529.359741 182.421356,504.054993 
	C198.146683,488.542450 217.200653,478.506012 238.246857,472.061005 
	C241.532471,471.054871 243.793396,471.178345 245.725159,474.457001 
	C247.227280,477.006439 249.374557,479.211914 251.424866,481.391785 
	C253.364517,483.453949 253.477341,484.325043 250.344589,485.160065 
	C205.944733,496.994965 175.574829,541.781372 176.183792,589.323120 
	C176.312714,599.388123 178.220276,609.198792 182.275650,618.492249 
	C191.217239,638.983215 208.261108,648.201355 230.293594,644.442200 
	C250.139023,641.056213 266.770355,631.279053 281.760651,618.327393 
	C285.161560,615.389038 288.365509,612.222656 291.910339,608.911255 
z"/>
<path fill="#FBFAFA" opacity="1.000000" stroke="none" 
	d="
M739.618469,608.374390 
	C745.437317,613.730591 746.980408,620.083984 745.463867,627.279297 
	C743.896118,634.717529 740.984863,641.499695 734.920837,647.620483 
	C734.038025,636.651184 726.381653,633.754883 718.030029,631.943604 
	C701.551819,628.369873 684.873718,629.000793 668.271606,630.525696 
	C604.660400,636.368408 542.084595,648.616394 479.591553,661.364258 
	C435.181427,670.423401 391.341156,681.547363 348.640625,696.880737 
	C336.490814,701.243591 324.321716,705.599670 313.006378,714.298523 
	C315.246887,705.236572 319.782471,699.015198 325.221893,693.363403 
	C339.411194,678.619995 357.244843,669.666016 375.809296,662.030090 
	C412.921082,646.765503 451.740753,637.222778 490.885651,629.206665 
	C547.647278,617.583008 604.568298,606.663452 662.253113,600.525940 
	C682.130371,598.411133 702.102600,596.885620 721.979004,600.925293 
	C728.226990,602.195190 734.220093,604.140381 739.618469,608.374390 
z"/>
<path fill="#F5B230" opacity="1.000000" stroke="none" 
	d="
M490.213562,732.811157 
	C460.005005,726.220215 432.620880,714.255188 406.737823,696.186157 
	C421.335693,692.535278 435.016052,689.121155 448.691284,685.686646 
	C451.046753,685.095093 452.895599,686.386963 454.832642,687.270996 
	C481.576904,699.476562 509.555176,706.438538 539.035828,705.905334 
	C588.585022,705.009277 631.123291,686.644531 667.028076,652.818970 
	C671.646484,648.468079 676.171692,646.422058 682.415588,646.695007 
	C690.896179,647.065552 699.406860,646.708679 707.903564,646.781860 
	C709.663452,646.796997 712.203552,646.040161 713.025024,647.624817 
	C714.025391,649.554565 711.759216,651.192322 710.654297,652.735168 
	C701.472656,665.556702 690.525940,676.751587 678.231506,686.554688 
	C622.821838,730.736267 560.307739,746.382202 490.213562,732.811157 
z"/>
<path fill="#FCFBF9" opacity="1.000000" stroke="none" 
	d="
M584.096680,342.148865 
	C577.041138,340.345459 570.381897,338.388519 563.689575,336.552521 
	C530.930969,327.565247 498.631317,329.104797 466.779266,340.830933 
	C462.238617,342.502533 458.016296,344.799866 453.475647,347.281860 
	C451.342926,346.724579 450.948090,345.049042 450.404816,343.506958 
	C446.985840,333.802124 441.230652,325.637604 433.960663,318.462677 
	C432.569397,317.089600 430.827026,315.936371 430.919312,313.315979 
	C431.044647,312.969635 431.033203,313.045471 430.994873,313.043854 
	C433.319397,311.344177 435.665436,311.944580 438.015228,313.082672 
	C441.466064,314.754059 444.797729,316.665619 447.934692,318.839539 
	C451.132843,321.055817 453.275665,320.349457 455.346436,317.296051 
	C458.428314,312.751770 462.288300,308.765015 465.351135,304.225891 
	C468.427338,299.666840 472.524078,298.733795 477.492523,299.448944 
	C484.907440,300.516235 492.264923,301.927338 499.547394,303.636383 
	C503.572205,304.580933 506.968536,304.039764 510.419586,301.794678 
	C515.995361,298.167358 521.821655,294.932556 527.629883,291.687714 
	C532.344177,289.053955 534.657166,289.353638 538.120605,293.425018 
	C541.680115,297.609253 545.764465,301.317780 549.086243,305.701630 
	C551.470825,308.848572 554.484497,310.332153 558.522461,310.202606 
	C574.666504,309.684692 590.747498,310.905640 606.820984,312.213135 
	C609.307861,312.415466 612.125488,312.265717 613.289185,315.010712 
	C614.490906,317.845428 612.343567,319.778351 610.515686,321.404114 
	C603.308228,327.814606 595.971130,334.078369 588.544006,340.235199 
	C587.348999,341.225769 585.902161,341.601227 584.096680,342.148865 
z"/>
<path fill="#F3B030" opacity="1.000000" stroke="none" 
	d="
M584.067749,342.439392 
	C592.627625,334.495422 601.551941,326.758301 610.435303,318.974396 
	C611.509583,318.033081 613.396118,317.213959 612.899841,315.561707 
	C612.396118,313.884949 610.386902,314.316650 608.983093,314.206879 
	C591.719788,312.856842 574.450073,311.391266 557.115723,312.110626 
	C553.324646,312.267975 550.937744,310.935883 548.642578,308.145508 
	C544.627991,303.264832 540.151001,298.764557 536.134949,293.884979 
	C533.938965,291.216888 532.203491,290.699951 529.100708,292.718140 
	C522.268311,297.162323 515.066040,301.034576 508.169037,305.384918 
	C506.041351,306.726990 504.151459,306.523193 502.011017,306.049744 
	C492.747650,304.000610 483.475220,302.021790 474.034332,300.900787 
	C471.196777,300.563843 469.550598,301.407532 467.881683,303.817841 
	C463.906311,309.559174 459.353973,314.898468 455.303131,320.591187 
	C453.312927,323.388123 451.658813,323.767792 448.825104,321.720886 
	C445.192841,319.097198 441.248596,316.897278 437.384247,314.606781 
	C435.678650,313.595795 433.907562,312.560089 431.355286,313.042755 
	C431.572998,311.459320 433.130920,311.028992 434.426788,310.414825 
	C492.053986,283.101898 550.554565,278.483765 610.150452,303.826904 
	C625.191528,310.223114 639.694458,317.624817 652.755859,327.585510 
	C653.647461,328.265442 654.409058,329.115906 656.269653,330.861298 
	C647.585754,330.598969 640.891052,334.468781 633.077148,334.205383 
	C622.803101,333.859161 613.040405,336.818878 604.303162,342.526489 
	C603.339294,343.156189 602.476685,344.363983 601.266479,343.520660 
	C596.734680,340.362640 592.085144,341.760193 587.378296,342.860413 
	C586.460083,343.075012 585.409363,342.722900 584.067749,342.439392 
z"/>
<path fill="#F9F9F9" opacity="1.000000" stroke="none" 
	d="
M295.053986,509.012390 
	C299.650513,515.714233 300.507874,522.954224 299.776672,530.377136 
	C298.334534,545.016968 292.948883,558.104492 283.464813,569.417114 
	C279.881165,573.691650 275.575378,577.049805 270.364319,579.170227 
	C254.183609,585.754395 238.268677,576.308228 237.161285,558.905823 
	C235.945938,539.806946 242.626907,523.584839 257.021179,510.816040 
	C263.766937,504.832062 271.786804,501.901001 280.881989,502.221680 
	C286.441223,502.417633 291.388519,503.972748 295.053986,509.012390 
z"/>
<path fill="#02DD9A" opacity="1.000000" stroke="none" 
	d="
M545.313049,666.407959 
	C576.370911,661.052246 606.999451,655.742249 638.231445,652.223694 
	C609.607849,678.105164 544.943726,702.549255 483.554291,677.816284 
	C504.853058,673.885071 524.871460,670.190125 545.313049,666.407959 
z"/>
<path fill="#EEAE32" opacity="1.000000" stroke="none" 
	d="
M315.576660,527.957397 
	C315.743805,521.610229 315.206268,515.807739 313.744965,510.138855 
	C313.123810,507.729279 313.264893,506.444916 316.167725,506.119476 
	C331.631500,504.385803 345.119476,497.700104 357.853943,489.196777 
	C358.407806,488.826904 358.919495,488.359650 359.521210,488.102417 
	C361.093475,487.430267 362.542572,485.085449 364.263214,486.542999 
	C365.573212,487.652649 364.139862,489.681915 363.765808,491.227448 
	C361.886902,498.991364 359.911224,506.733124 357.842102,514.448486 
	C357.487335,515.771179 357.866241,517.824036 354.953400,517.334961 
	C341.206909,515.026855 332.473846,519.846741 326.802704,532.580872 
	C324.839233,536.989685 322.984283,541.446655 321.035400,545.862061 
	C315.278839,558.904175 307.813110,570.856812 298.295044,581.504272 
	C297.531128,582.358887 296.969391,583.394226 295.547729,583.876404 
	C305.269897,566.366211 314.808777,548.984192 315.576660,527.957397 
z"/>
<path fill="#F3B131" opacity="1.000000" stroke="none" 
	d="
M800.653809,400.213654 
	C808.643738,408.479187 809.624023,418.548523 803.595642,428.341827 
	C799.680908,434.701385 793.922180,439.275635 788.326721,444.019623 
	C785.892273,446.083588 784.869019,444.283691 783.626343,442.667694 
	C778.550232,436.066589 773.464844,429.472595 768.375793,422.881439 
	C766.434814,420.367493 764.447266,417.854675 761.540588,416.407654 
	C759.320801,415.302582 758.973755,414.085968 760.687378,412.240662 
	C767.903198,404.470337 776.274902,398.680664 787.033142,397.184570 
	C791.747253,396.528992 796.369019,396.924194 800.653809,400.213654 
z"/>
<path fill="#F4B436" opacity="1.000000" stroke="none" 
	d="
M430.655457,313.085266 
	C437.763550,319.623840 444.480408,326.254974 448.621735,334.996490 
	C450.405029,338.760712 452.167480,342.494873 453.046936,347.009247 
	C444.019897,354.815613 433.303375,359.932068 423.918243,367.809357 
	C429.658722,346.529297 427.347290,326.999084 412.980591,309.478333 
	C412.673584,308.568268 412.866394,308.071625 413.815979,307.696838 
	C417.856506,309.658020 421.561249,311.469421 425.036621,313.646912 
	C427.096710,314.937683 428.646515,314.820282 430.655457,313.085266 
z"/>
<path fill="#F1B537" opacity="1.000000" stroke="none" 
	d="
M553.488892,473.604736 
	C562.478210,472.702301 571.020630,471.875519 579.727356,471.032806 
	C578.235229,477.163971 576.827820,482.777191 575.522827,488.414124 
	C575.138489,490.074036 574.519531,491.120056 572.589661,490.980469 
	C557.762573,489.908203 543.173340,487.972931 530.314758,479.601501 
	C529.781799,479.254517 529.181519,478.906372 529.400391,477.668457 
	C537.010132,475.457184 545.026917,474.573090 553.488892,473.604736 
z"/>
<path fill="#03CE88" opacity="1.000000" stroke="none" 
	d="
M496.736816,351.816467 
	C513.676941,349.644714 530.176575,348.419922 547.345703,351.848267 
	C545.934509,353.487915 544.635498,353.452393 543.483887,353.549408 
	C531.524109,354.556946 519.463318,356.056641 508.134583,359.547150 
	C497.328430,362.876617 486.460846,360.510864 475.821808,362.774139 
	C469.851105,364.044281 463.842743,365.133942 457.485291,367.223816 
	C463.035034,360.539642 481.704346,354.090546 496.736816,351.816467 
z"/>
<path fill="#F1B537" opacity="1.000000" stroke="none" 
	d="
M543.227844,567.269287 
	C544.632263,569.281189 544.138672,571.600037 544.062927,574.240601 
	C534.752625,580.282288 525.401184,585.699646 516.430847,591.687866 
	C506.735504,598.160095 497.697083,605.504395 490.058624,614.431580 
	C489.190918,615.445679 488.047577,617.301819 486.453583,615.981750 
	C485.218140,614.958557 486.622345,613.471741 487.156189,612.390076 
	C492.207642,602.154968 499.843964,594.177734 509.114655,587.679016 
	C519.892883,580.123474 531.767029,574.392639 543.227844,567.269287 
z"/>
<path fill="#EEAE32" opacity="1.000000" stroke="none" 
	d="
M736.977173,441.840820 
	C737.969299,438.820007 738.847351,436.173309 739.913635,432.959045 
	C743.551147,436.322144 744.971069,440.441498 747.249512,443.930786 
	C750.159241,448.386688 752.725098,453.071991 755.327332,457.721008 
	C756.133728,459.161743 757.058105,461.228241 754.005920,461.040253 
	C744.320312,460.443604 736.094849,463.985107 728.509033,469.576843 
	C728.028442,469.931061 727.288696,469.933746 725.860901,470.317047 
	C729.679443,460.563629 733.271240,451.389282 736.977173,441.840820 
z"/>
<path fill="#F8F7F8" opacity="1.000000" stroke="none" 
	d="
M510.077148,610.924316 
	C505.737274,611.646423 501.818207,612.309143 497.899109,612.971924 
	C509.340302,599.763855 524.083313,591.204529 538.685913,581.995300 
	C539.322937,595.069031 527.433289,607.028259 510.077148,610.924316 
z"/>
<path fill="#E9AD39" opacity="1.000000" stroke="none" 
	d="
M388.440186,364.820465 
	C389.591522,366.067871 390.281647,367.609985 391.319305,367.897430 
	C396.893555,369.441650 400.751770,373.500397 405.424744,376.949890 
	C406.320984,381.942505 405.602173,386.662140 404.025391,391.629150 
	C403.174988,390.485596 402.538940,389.027405 401.911926,387.216675 
	C401.276611,386.169708 401.630798,385.245300 401.149292,384.235016 
	C400.930664,384.006989 400.994904,384.004913 400.972382,384.027832 
	C400.201080,382.060028 399.594391,380.051392 398.356201,378.227783 
	C394.196533,372.101501 390.564606,372.106232 386.280945,378.710510 
	C385.585236,380.841980 385.053711,382.665924 384.288971,384.750610 
	C381.914185,386.716522 379.776581,386.129669 377.306152,384.736603 
	C375.878021,383.200745 375.813232,381.713470 376.367249,380.269196 
	C377.965088,376.103729 379.329468,371.808899 381.767609,368.038330 
	C383.196747,365.828217 384.843201,363.557892 388.440186,364.820465 
z"/>
<path fill="#E9AD39" opacity="1.000000" stroke="none" 
	d="
M350.403931,646.621582 
	C352.066803,645.756836 353.570557,645.270020 354.683746,644.323730 
	C357.150208,642.227112 358.683899,642.835815 360.751617,645.157776 
	C363.543274,648.292725 363.847931,650.255188 359.722229,652.331421 
	C355.864441,654.272827 352.297211,656.784302 348.549500,658.954163 
	C345.718445,660.593323 340.672089,657.721069 339.302765,653.377014 
	C338.169891,649.783020 341.740631,650.158997 343.539917,649.269165 
	C345.616455,648.242249 347.883362,647.600159 350.403931,646.621582 
z"/>
<path fill="#F8F7F8" opacity="1.000000" stroke="none" 
	d="
M449.526855,504.739807 
	C450.170288,504.991547 450.501648,505.388580 451.162476,505.994568 
	C447.078979,510.366974 442.282135,514.178589 439.124817,519.544617 
	C440.585022,513.346191 444.825592,509.065125 449.526855,504.739807 
z"/>
<path fill="#AC8035" opacity="1.000000" stroke="none" 
	d="
M734.697754,400.957092 
	C734.254883,402.297394 733.398254,403.520691 732.286438,404.874207 
	C732.361511,403.669647 732.691711,402.334839 733.230469,400.839722 
	C733.720642,400.732910 734.002258,400.786469 734.697754,400.957092 
z"/>
<path fill="#AC8035" opacity="1.000000" stroke="none" 
	d="
M414.038757,307.414734 
	C413.886749,307.989777 413.525238,308.286926 412.984406,308.887451 
	C411.517609,308.743103 410.948792,307.575836 410.076996,306.320099 
	C411.510315,305.468597 412.622894,306.470154 414.038757,307.414734 
z"/>
<path fill="#AC8035" opacity="1.000000" stroke="none" 
	d="
M410.014465,305.997375 
	C409.930511,305.920868 409.825012,305.860687 409.719482,305.800476 
	C409.808197,305.787170 409.896912,305.773865 409.969788,305.906006 
	C409.953979,306.051453 409.992859,306.013733 410.014465,305.997375 
z"/>
<path fill="#272222" opacity="1.000000" stroke="none" 
	d="
M388.853943,364.679871 
	C384.703674,364.876251 383.544373,368.094025 382.288666,370.836670 
	C380.450592,374.851196 379.172516,379.119659 376.754578,383.263397 
	C376.632019,383.848053 376.609497,384.093567 376.439758,384.678894 
	C372.063446,390.217224 367.033844,393.524506 359.890778,392.440826 
	C359.229980,392.340546 360.401764,393.899200 359.776978,395.042847 
	C355.748840,399.999390 350.926941,398.879181 346.331024,397.174225 
	C340.329529,394.947937 336.783020,390.278046 336.433899,383.941040 
	C335.760895,371.725952 340.644379,361.584991 349.167664,353.065979 
	C350.576843,351.657501 352.298615,350.583038 353.597198,349.036133 
	C355.043243,347.313538 355.347839,345.472046 354.215271,343.501709 
	C353.073761,341.515869 351.267303,340.928802 349.095734,341.296875 
	C347.272217,341.605896 345.568542,342.268250 343.938568,343.134949 
	C329.742035,350.684174 320.112305,371.310913 323.416016,387.100555 
	C326.694519,402.769684 340.658203,411.290649 356.726654,407.445984 
	C361.326935,406.345245 365.451050,404.203278 369.725128,401.520142 
	C374.073914,399.160431 376.170258,394.413757 381.222412,393.169281 
	C382.649353,396.380646 383.685425,399.683716 386.043121,402.055786 
	C388.069275,404.094238 387.935486,405.930328 387.178375,408.327728 
	C382.828705,422.101135 375.064636,433.854645 365.506226,444.437073 
	C355.264435,455.776062 343.607361,465.376526 329.303375,471.281769 
	C307.464539,480.297791 289.832581,472.065887 282.826691,449.421570 
	C276.807404,429.966248 278.645081,410.530273 284.086060,391.335968 
	C291.328888,365.785187 305.163300,344.733307 327.860016,330.259430 
	C339.330261,322.944702 351.873779,318.557068 365.712982,320.029633 
	C375.109741,321.029480 383.452515,324.326935 388.462158,333.287415 
	C389.938751,335.928467 389.581665,336.890839 386.902863,338.506439 
	C370.628845,348.321289 359.775848,362.280884 355.695923,381.087280 
	C354.420288,386.967407 356.624329,388.759613 362.446350,387.084717 
	C367.933197,385.506256 371.702942,382.203308 374.154419,377.062592 
	C378.171997,368.637726 383.076050,360.706818 388.203888,352.918579 
	C388.811188,351.996185 389.114441,350.693695 390.939758,350.491821 
	C390.272369,355.147614 389.619629,359.701263 388.853943,364.679871 
z"/>
<path fill="#2B2626" opacity="1.000000" stroke="none" 
	d="
M490.205383,392.240906 
	C495.003326,392.995575 495.586823,396.576813 495.949554,400.065155 
	C496.420837,404.597870 495.372467,408.999481 494.128510,413.336334 
	C490.059937,427.520355 484.298187,440.892670 475.049988,452.544006 
	C472.982544,455.148621 470.616791,457.547455 467.665131,459.183777 
	C464.274017,461.063782 462.241119,460.025970 461.941101,456.127899 
	C461.582642,451.470245 461.970642,446.841248 462.881195,442.230621 
	C465.782501,427.539825 470.847198,413.738434 479.545746,401.444794 
	C482.238953,397.638458 485.243896,394.039825 490.205383,392.240906 
z"/>
<path fill="#F4B436" opacity="1.000000" stroke="none" 
	d="
M381.649689,392.893372 
	C378.346771,396.127228 375.580933,399.566345 371.512085,401.977966 
	C366.772095,401.751251 364.254333,398.694061 361.694458,395.225555 
	C361.825562,393.511536 362.791443,392.844757 363.974915,392.656097 
	C369.413513,391.789124 373.047729,388.281403 376.530273,383.998230 
	C376.655151,383.660156 376.665558,383.633057 376.660065,383.617798 
	C378.846375,384.058167 381.038177,384.513763 383.642883,384.990356 
	C383.276154,387.531647 382.496521,390.051941 381.649689,392.893372 
z"/>
<path fill="#AC8035" opacity="1.000000" stroke="none" 
	d="
M386.368927,378.798767 
	C385.694702,375.376770 387.892639,373.639069 390.892181,372.555786 
	C393.952301,371.450623 395.941162,373.274261 397.553741,375.400330 
	C399.312408,377.719055 401.258606,380.049408 401.019012,383.662781 
	C399.399384,383.131104 399.140320,381.350861 398.293518,379.974487 
	C394.576843,373.933380 391.669830,373.554993 386.368927,378.798767 
z"/>
<path fill="#AC8035" opacity="1.000000" stroke="none" 
	d="
M698.289917,431.019592 
	C698.253235,429.528168 699.073120,428.793121 700.322754,428.120605 
	C700.907166,429.540497 700.005737,430.549438 699.385864,431.752869 
	C698.979187,431.677795 698.785217,431.486603 698.289917,431.019592 
z"/>
<path fill="#AC8035" opacity="1.000000" stroke="none" 
	d="
M400.866577,384.327148 
	C401.926147,384.449860 401.884735,385.343201 401.905701,386.540100 
	C401.548126,386.125183 401.175293,385.386261 400.866577,384.327148 
z"/>
<path fill="#AC8035" opacity="1.000000" stroke="none" 
	d="
M732.013794,405.023346 
	C732.008057,405.039124 731.842834,405.076080 731.842834,405.076080 
	C731.842834,405.076080 732.053345,405.136261 732.042297,405.070374 
	C732.031250,405.004456 732.019531,405.007568 732.013794,405.023346 
z"/>
<path fill="#2B2626" opacity="1.000000" stroke="none" 
	d="
M649.637939,572.201660 
	C648.715942,570.206970 647.882996,568.566650 647.292908,566.843201 
	C644.855652,559.724487 645.162292,558.461975 651.102966,553.824097 
	C662.445251,544.969055 670.238342,533.154846 678.314209,521.560974 
	C680.973022,517.743958 683.676453,513.957336 686.412048,510.195068 
	C686.980530,509.413300 687.680786,508.391510 688.773132,508.612152 
	C690.311523,508.922882 689.957275,510.409088 690.024353,511.474243 
	C690.726074,522.617981 688.171448,533.264771 684.942932,543.789612 
	C682.596375,551.439209 679.526917,558.784790 675.275513,565.596436 
	C672.968750,569.292297 670.267517,572.634338 666.630615,575.128723 
	C660.050171,579.642029 654.963989,578.853821 649.637939,572.201660 
z"/>
<path fill="#2F2A2B" opacity="1.000000" stroke="none" 
	d="
M834.270386,512.963989 
	C838.976440,505.389587 843.884521,498.132721 849.316406,490.101410 
	C854.941650,504.664581 860.003906,518.291626 858.035706,533.375183 
	C856.977600,541.483948 853.819275,548.409363 846.713684,553.057007 
	C840.291748,557.257507 831.686523,555.849426 827.011902,549.819641 
	C822.247009,543.673279 822.711365,532.217590 827.904358,527.626831 
	C829.494446,526.221252 831.385681,525.225403 833.365540,526.183472 
	C835.541992,527.236694 835.257812,529.464722 834.919128,531.495361 
	C834.754639,532.481506 834.519226,533.458496 834.404175,534.449829 
	C833.780151,539.828735 835.495544,543.095886 839.387573,544.006165 
	C844.350586,545.166870 848.947327,542.936707 850.936584,538.402893 
	C855.264404,528.539185 849.252747,516.973999 838.348267,514.197754 
	C837.062012,513.870300 835.764648,513.585938 834.270386,512.963989 
z"/>
<path fill="#2F2A2B" opacity="1.000000" stroke="none" 
	d="
M648.671509,521.807129 
	C650.475464,516.511475 652.445618,511.768555 656.843628,508.564514 
	C657.595703,508.016663 658.477966,507.110535 659.437988,508.078339 
	C660.114563,508.760437 659.585449,509.639160 659.270630,510.387085 
	C657.339478,514.974304 655.378601,519.549133 653.460693,524.141846 
	C652.429260,526.611572 652.096008,529.289062 654.501831,530.939514 
	C657.226257,532.808533 655.748657,534.114563 654.481689,535.657715 
	C652.403015,538.189636 650.064941,542.885315 647.614624,541.988281 
	C644.574646,540.875427 646.403076,536.109863 646.694397,532.961731 
	C647.029175,529.343872 647.906006,525.776123 648.671509,521.807129 
z"/>
<path fill="#252021" opacity="1.000000" stroke="none" 
	d="
M609.160706,500.199371 
	C608.755920,500.906555 608.091919,501.306396 608.150818,499.727600 
	C608.487915,499.635345 608.685913,499.789642 609.160706,500.199371 
z"/>
<path fill="#2F2A2B" opacity="1.000000" stroke="none" 
	d="
M439.418030,591.220581 
	C439.371124,598.185913 440.788849,600.508179 445.099213,601.031799 
	C450.328461,601.667053 454.639160,598.432983 455.969482,592.876465 
	C458.731506,581.339966 451.598114,572.004517 437.731232,569.565430 
	C440.776031,565.446411 443.786072,561.553589 446.596649,557.521790 
	C449.422516,553.468140 452.049988,549.276184 455.337006,544.273193 
	C459.129333,560.298645 464.513031,575.046326 462.042542,590.973389 
	C460.997559,597.710144 458.728821,603.914307 453.193146,608.351318 
	C447.880402,612.609619 441.884277,613.352417 435.876831,610.349182 
	C430.148987,607.485779 428.455719,602.154907 428.830383,596.043091 
	C429.088562,591.831604 429.939117,587.756287 432.354889,584.226746 
	C433.567657,582.454956 435.135986,580.552673 437.647247,581.369873 
	C440.259186,582.219849 440.100067,584.637756 439.945862,586.838501 
	C439.852905,588.164917 439.634399,589.482483 439.418030,591.220581 
z"/>
<path fill="#AC8035" opacity="1.000000" stroke="none" 
	d="
M315.143005,602.195801 
	C313.501434,600.936157 313.501434,600.936157 316.393127,597.815491 
	C316.962341,599.488831 315.798950,600.585815 315.143005,602.195801 
z"/>
<path fill="#2B2626" opacity="1.000000" stroke="none" 
	d="
M250.704773,559.289490 
	C250.735504,541.806763 257.363800,528.165466 272.209564,519.231934 
	C277.776093,515.882263 279.199188,516.913635 278.934082,523.420715 
	C278.315155,538.612671 272.882538,551.966125 262.821472,563.349182 
	C260.802368,565.633606 258.440887,569.093018 255.236023,568.066650 
	C251.984497,567.025269 251.227417,563.072998 250.704773,559.289490 
z"/>
<path fill="#F8F7F8" opacity="1.000000" stroke="none" 
	d="
M361.897003,394.370239 
	C365.042023,396.848572 367.913696,399.167328 370.985413,401.765228 
	C361.119995,410.655670 345.878082,412.676178 335.336090,406.796631 
	C324.563263,400.788361 319.212097,388.452271 321.505249,374.586487 
	C323.569397,362.105499 329.363373,351.745514 339.429260,343.921234 
	C341.669373,342.179993 344.084351,340.732117 346.811523,339.844055 
	C350.675354,338.585785 354.287720,338.815369 356.364441,342.698975 
	C358.456207,346.610809 356.655945,349.684265 353.282257,352.063660 
	C343.635010,358.867859 339.021301,368.535339 338.020111,379.980530 
	C337.194183,389.421661 341.926697,395.486237 350.500793,396.760773 
	C353.560669,397.215637 356.461548,396.772522 359.475616,394.850037 
	C360.371765,394.205719 360.972870,394.097504 361.897003,394.370239 
z"/>
<path fill="#E9AD39" opacity="1.000000" stroke="none" 
	d="
M362.476868,394.377502 
	C361.580475,394.550293 360.990540,394.570740 360.119019,394.601318 
	C359.568390,393.252106 356.899109,390.959503 361.065033,391.295776 
	C367.528656,391.817535 372.119873,388.568512 376.367218,383.823059 
	C375.352692,388.746368 369.315735,393.344269 362.476868,394.377502 
z"/>
</svg>